<svg width="30" height="30" viewBox="0 0 30 30" fill="none" xmlns="http://www.w3.org/2000/svg">
<path d="M20.7865 17.3638L21.3565 16.7975L20.0327 15.4675L19.4652 16.0338L20.7865 17.3638ZM23.2677 16.56L25.6565 17.8588L26.5502 16.2113L24.1627 14.9138L23.2677 16.56ZM26.1152 20.4388L24.3402 22.205L25.6615 23.5338L27.4365 21.7688L26.1152 20.4388ZM23.2577 22.7725C21.4452 22.9425 16.7577 22.7913 11.6802 17.7438L10.3577 19.0725C15.8977 24.5813 21.1715 24.8513 23.4327 24.64L23.2577 22.7725ZM11.6802 17.7438C6.84147 12.9313 6.03897 8.885 5.93897 7.12875L4.06647 7.235C4.19147 9.445 5.18522 13.93 10.3577 19.0725L11.6802 17.7438ZM13.399 10.0188L13.7577 9.66125L12.4377 8.3325L12.079 8.68875L13.399 10.0188ZM14.0427 5.1175L12.4677 3.0125L10.9665 4.1375L12.5415 6.24125L14.0427 5.1175ZM7.16647 2.55375L5.20397 4.50375L6.52647 5.83375L8.48772 3.88375L7.16647 2.55375ZM12.739 9.35375C12.0765 8.68875 12.0765 8.68875 12.0765 8.69125H12.074L12.0702 8.69625C12.0108 8.75615 11.9576 8.8219 11.9115 8.8925C11.844 8.9925 11.7702 9.12375 11.7077 9.29C11.5556 9.71916 11.5177 10.1805 11.5977 10.6288C11.7652 11.71 12.5102 13.1388 14.4177 15.0363L15.7402 13.7063C13.954 11.9313 13.529 10.8513 13.4502 10.3413C13.4127 10.0988 13.4515 9.97875 13.4627 9.95125C13.4702 9.93459 13.4702 9.93209 13.4627 9.94375C13.4516 9.961 13.439 9.97731 13.4252 9.9925L13.4127 10.005L13.4002 10.0163L12.739 9.35375ZM14.4177 15.0363C16.3265 16.9338 17.7627 17.6738 18.8452 17.8388C19.399 17.9238 19.8452 17.8563 20.184 17.73C20.3737 17.6606 20.551 17.561 20.709 17.435L20.7715 17.3788L20.7802 17.3713L20.784 17.3675L20.7852 17.365C20.7852 17.365 20.7865 17.3638 20.1252 16.6988C19.4627 16.0338 19.4665 16.0325 19.4665 16.0325L19.469 16.03L19.4715 16.0275L19.479 16.0213L19.4915 16.0088L19.539 15.9713C19.5506 15.9638 19.5477 15.9646 19.5302 15.9738C19.499 15.985 19.3765 16.0238 19.1302 15.9863C18.6127 15.9063 17.5252 15.4813 15.7402 13.7063L14.4177 15.0363ZM12.4677 3.01125C11.1927 1.31125 8.68772 1.04125 7.16647 2.55375L8.48772 3.88375C9.15272 3.2225 10.3327 3.29125 10.9665 4.1375L12.4677 3.01125ZM5.94022 7.13C5.91522 6.6975 6.11397 6.245 6.52647 5.835L5.20272 4.505C4.53147 5.1725 4.00272 6.1175 4.06647 7.235L5.94022 7.13ZM24.3402 22.205C23.9977 22.5475 23.6277 22.74 23.259 22.7738L23.4327 24.64C24.3515 24.5538 25.1027 24.0913 25.6627 23.535L24.3402 22.205ZM13.7577 9.66125C14.989 8.4375 15.0802 6.50375 14.044 5.11875L12.5427 6.2425C13.0465 6.91625 12.9715 7.8 12.4365 8.33375L13.7577 9.66125ZM25.6577 17.86C26.679 18.415 26.8377 19.7225 26.1165 20.44L27.439 21.7688C29.114 20.1025 28.5977 17.3238 26.5515 16.2125L25.6577 17.86ZM21.3565 16.7988C21.8365 16.3213 22.609 16.2038 23.269 16.5613L24.164 14.915C22.809 14.1775 21.129 14.3813 20.034 15.4688L21.3565 16.7988Z" fill="black"/>
</svg>
